<svg width="144" height="110" viewBox="0 0 144 110" fill="none" xmlns="http://www.w3.org/2000/svg">
<path d="M121.902 9.09848C112.724 4.88717 102.882 1.78448 92.5914 0.00746325C92.4039 -0.0268568 92.2167 0.058854 92.1201 0.230274C90.8544 2.48156 89.4525 5.41856 88.4706 7.72703C77.4024 6.07001 66.3912 6.07001 55.5498 7.72703C54.5679 5.36726 53.115 2.48156 51.8433 0.230274C51.747 0.064584 51.5598 -0.0211268 51.3723 0.00746325C41.0874 1.77881 31.2453 4.8815 22.0616 9.09848C21.9821 9.13274 21.914 9.18995 21.8687 9.26417C3.20034 37.1542 -1.9137 64.3588 0.595081 91.2262C0.606433 91.3576 0.680221 91.4836 0.782389 91.5634C13.0993 100.609 25.0302 106.1 36.7398 109.74C36.927 109.797 37.1256 109.728 37.245 109.574C40.0149 105.792 42.4839 101.803 44.601 97.6088C44.7258 97.3631 44.6064 97.0718 44.3511 96.9746C40.4349 95.489 36.7056 93.6775 33.1185 91.6207C32.8347 91.4548 32.8119 91.049 33.0729 90.8549C33.8277 90.2891 34.5828 89.7004 35.3037 89.1064C35.4342 88.9978 35.616 88.9747 35.7693 89.0434C59.3358 99.8029 84.8493 99.8029 108.138 89.0434C108.291 88.9693 108.473 88.9921 108.609 89.1007C109.33 89.6947 110.085 90.2891 110.845 90.8549C111.106 91.049 111.089 91.4548 110.806 91.6207C107.218 93.7174 103.489 95.489 99.567 96.9689C99.3117 97.0661 99.1983 97.3631 99.3231 97.6088C101.486 101.797 103.955 105.786 106.673 109.568C106.787 109.728 106.991 109.797 107.179 109.74C118.945 106.1 130.876 100.609 143.193 91.5634C143.3 91.4836 143.369 91.3633 143.38 91.2319C146.383 60.1705 138.351 33.1888 122.089 9.26985C122.05 9.18996 121.982 9.13274 121.902 9.09848ZM48.12 74.8669C41.025 74.8669 35.1789 68.353 35.1789 60.3532C35.1789 52.3537 40.9116 45.8398 48.12 45.8398C55.3851 45.8398 61.1748 52.4107 61.0614 60.3532C61.0614 68.353 55.3284 74.8669 48.12 74.8669ZM95.9685 74.8669C88.8735 74.8669 83.0274 68.353 83.0274 60.3532C83.0274 52.3537 88.7601 45.8398 95.9685 45.8398C103.234 45.8398 109.023 52.4107 108.91 60.3532C108.91 68.353 103.234 74.8669 95.9685 74.8669Z" fill="white"/>
</svg>
