<svg width="267" height="76" viewBox="0 0 267 76" fill="none" xmlns="http://www.w3.org/2000/svg">
<path d="M0.2 59V17.4H10.84V23.48C13 18.84 17.16 16.44 23.56 16.44C29.4 16.44 34.36 19.24 37.08 24.28C39.88 19.24 43.88 16.44 51.16 16.44C60.12 16.44 67 23.08 67 33.56V59H56.2V36.2C56.2 29 52.76 25.88 47.88 25.88C42.84 25.88 39.4 28.2 39.4 36.2V59H28.6V36.2C28.6 29 25 25.88 19.64 25.88C15.08 25.88 11 29 11 36.2V59H0.2ZM70.2125 59V0.599998H81.0125V59H70.2125ZM108.52 60.04C101.08 60.04 97.32 56.92 95.08 52.2V59H84.6V0.599998H95.4V23.8C97.64 19.4 101.4 16.52 108.52 16.52C119.96 16.52 129.08 26.36 129.08 38.36C129.08 50.36 119.96 60.04 108.52 60.04ZM95.08 38.36C95.08 44.84 99.64 50.28 106.76 50.28C113.64 50.28 118.28 44.6 118.28 38.28C118.28 31.8 113.64 26.28 106.76 26.28C99.64 26.28 95.08 31.88 95.08 38.36ZM155.017 60.04C147.577 60.04 143.817 56.92 141.577 52.2V59H131.097V0.599998H141.897V23.8C144.137 19.4 147.897 16.52 155.017 16.52C166.457 16.52 175.577 26.36 175.577 38.36C175.577 50.36 166.457 60.04 155.017 60.04ZM141.577 38.36C141.577 44.84 146.137 50.28 153.257 50.28C160.137 50.28 164.777 44.6 164.777 38.28C164.777 31.8 160.137 26.28 153.257 26.28C146.137 26.28 141.577 31.88 141.577 38.36ZM181.791 60.04C177.631 60.04 174.591 56.84 174.591 53C174.591 49.24 177.631 46.04 181.791 46.04C185.951 46.04 188.911 49.24 188.911 53C188.911 56.84 185.951 60.04 181.791 60.04ZM192.912 14.6C192.912 6.2 198.352 0.599998 206.752 0.599998H211.232V9.8H208.432C205.232 9.8 203.712 11.48 203.712 14.76V17.4H212.192V26.6H203.712V59H192.912V26.6H187.072V17.4H192.912V14.6ZM218.109 75.72C215.949 75.72 213.069 75.56 210.909 74.92L212.509 64.6C214.109 65 215.629 65.16 217.389 65.16C221.549 65.16 224.189 62.52 225.389 58.84L225.949 57.08L209.469 17.4H222.509L230.589 41.16C231.309 43.16 231.949 45.64 232.349 47.8C232.749 45.64 233.389 43.16 234.109 41.16L242.189 17.4H254.989L236.589 61.64C233.069 70.04 227.869 75.72 218.109 75.72ZM254.194 59V17.4H264.994V59H254.194ZM253.074 7.56C253.074 4.12 255.874 1.24 259.554 1.24C263.314 1.24 266.034 4.12 266.034 7.56C266.034 11.16 263.314 13.96 259.554 13.96C255.874 13.96 253.074 11.08 253.074 7.56Z" fill="white"/>
</svg>
